{
	"asset":{
		"version":"2.0",
		"generator":"Created using the official Cinema 4D glTF Exporter 1.000x284978"
	},
	"scenes":[{
		"nodes":[0]
	}],
	"nodes":[{
		"name":"Volume Mesher.1",
		"mesh":0
	}],
	"meshes":[{
		"name":"Volume Mesher.1",
		"primitives":[{
			"attributes":{
				"POSITION":1
			},
			"indices":0
		}]
	}],
	"accessors":[{
		"bufferView":0,
		"max":[27149],
		"type":"SCALAR",
		"componentType":5123,
		"count":162960,
		"byteOffset":0,
		"min":[0]
	},
	{
		"bufferView":1,
		"max":[112.14464569091797,
		144.1304168701172,
		14.893415451049805],
		"type":"VEC3",
		"componentType":5126,
		"count":27150,
		"byteOffset":0,
		"min":[-49.88966369628906,
		-49.857242584228519,
		-14.893415451049805]
	}],
	"bufferViews":[{
		"buffer":0,
		"byteOffset":0,
		"target":34963,
		"byteLength":325920
	},
	{
		"buffer":0,
		"byteOffset":325920,
		"target":34962,
		"byteLength":325800
	}],
	"buffers":[{
		"uri":"data:application/octet-stream;base64,",
		"byteLength":651720
	}]
}