{
	"asset":{
		"version":"2.0",
		"generator":"Created using the official Cinema 4D glTF Exporter 1.000x284978"
	},
	"scenes":[{
		"nodes":[0]
	}],
	"nodes":[{
		"name":"Volume Mesher.1",
		"mesh":0
	}],
	"meshes":[{
		"name":"Volume Mesher.1",
		"primitives":[{
			"attributes":{
				"POSITION":1
			},
			"indices":0
		}]
	}],
	"accessors":[{
		"bufferView":0,
		"max":[37495],
		"type":"SCALAR",
		"componentType":5123,
		"count":224964,
		"byteOffset":0,
		"min":[0]
	},
	{
		"bufferView":1,
		"max":[112.21589660644531,
		144.15086364746095,
		14.893415451049805],
		"type":"VEC3",
		"componentType":5126,
		"count":37496,
		"byteOffset":0,
		"min":[-49.88966369628906,
		-49.857242584228519,
		-14.893415451049805]
	}],
	"bufferViews":[{
		"buffer":0,
		"byteOffset":0,
		"target":34963,
		"byteLength":449928
	},
	{
		"buffer":0,
		"byteOffset":449928,
		"target":34962,
		"byteLength":449952
	}],
	"buffers":[{
		"uri":"data:application/octet-stream;base64,",
		"byteLength":899880
	}]
}