{
	"asset":{
		"version":"2.0",
		"generator":"Created using the official Cinema 4D glTF Exporter 1.000x284978"
	},
	"scenes":[{
		"nodes":[0]
	}],
	"nodes":[{
		"name":"Volume Mesher",
		"translation":[0.0,
		0.0,
		0.0],
		"rotation":[0.0,
		-1.0,
		0.0,
		-6.123234262925839e-17],
		"scale":[1.0,
		1.0,
		1.0],
		"mesh":0
	}],
	"meshes":[{
		"name":"Volume Mesher",
		"primitives":[{
			"attributes":{
				"POSITION":1
			},
			"indices":0
		}]
	}],
	"accessors":[{
		"bufferView":0,
		"max":[6597],
		"type":"SCALAR",
		"componentType":5123,
		"count":39576,
		"byteOffset":0,
		"min":[0]
	},
	{
		"bufferView":1,
		"max":[51.348575592041019,
		66.09742736816406,
		6.52858304977417],
		"type":"VEC3",
		"componentType":5126,
		"count":6598,
		"byteOffset":0,
		"min":[-22.604938507080079,
		-22.591602325439454,
		-6.52858304977417]
	}],
	"bufferViews":[{
		"buffer":0,
		"byteOffset":0,
		"target":34963,
		"byteLength":79152
	},
	{
		"buffer":0,
		"byteOffset":79152,
		"target":34962,
		"byteLength":79176
	}],
	"buffers":[{
		"uri":"data:application/octet-stream;base64,",
		"byteLength":158328
	}]
}