{
	"asset":{
		"version":"2.0",
		"generator":"Created using the official Cinema 4D glTF Exporter 1.000x284978"
	},
	"scenes":[{
		"nodes":[0]
	}],
	"nodes":[{
		"name":"Polygon",
		"translation":[6.948074817657471,
		252.8726806640625,
		1.5874239170536923e-15],
		"rotation":[0.5,
		0.5,
		0.5,
		-0.5],
		"scale":[1.0,
		1.0,
		1.0],
		"mesh":0
	}],
	"meshes":[{
		"name":"Polygon",
		"primitives":[{
			"attributes":{
				"POSITION":1
			},
			"indices":0,
			"material":0
		}]
	}],
	"accessors":[{
		"bufferView":0,
		"max":[169],
		"type":"SCALAR",
		"componentType":5123,
		"count":1008,
		"byteOffset":0,
		"min":[0]
	},
	{
		"bufferView":1,
		"max":[28.63709831237793,
		196.05914306640626,
		38.80534362792969],
		"type":"VEC3",
		"componentType":5126,
		"count":170,
		"byteOffset":0,
		"min":[-58.30402755737305,
		-127.3890151977539,
		-291.6688537597656]
	}],
	"bufferViews":[{
		"buffer":0,
		"byteOffset":0,
		"target":34963,
		"byteLength":2016
	},
	{
		"buffer":0,
		"byteOffset":2016,
		"target":34962,
		"byteLength":2040
	}],
	"buffers":[{
		"uri":"data:application/octet-stream;base64,",
		"byteLength":4056
	}],
	"materials":[{
		"pbrMetallicRoughness":{
			"baseColorFactor":[0.8,
			0.8,
			0.8,
			1.0],
			"metallicFactor":0.0,
			"roughnessFactor":0.5
		},
		"emissiveFactor":[0.0,
		0.7833333333333332,
		1.0],
		"alphaMode":"OPAQUE",
		"doubleSided":false,
		"name":"Mat"
	}]
}